G04 #@! TF.GenerationSoftware,KiCad,Pcbnew,8.0.1-8.0.1-1~ubuntu22.04.1*
G04 #@! TF.CreationDate,2024-06-03T13:26:47-07:00*
G04 #@! TF.ProjectId,emu_brd,656d755f-6272-4642-9e6b-696361645f70,REV1*
G04 #@! TF.SameCoordinates,Original*
G04 #@! TF.FileFunction,Soldermask,Top*
G04 #@! TF.FilePolarity,Negative*
%FSLAX46Y46*%
G04 Gerber Fmt 4.6, Leading zero omitted, Abs format (unit mm)*
G04 Created by KiCad (PCBNEW 8.0.1-8.0.1-1~ubuntu22.04.1) date 2024-06-03 13:26:47*
%MOMM*%
%LPD*%
G01*
G04 APERTURE LIST*
G04 Aperture macros list*
%AMRoundRect*
0 Rectangle with rounded corners*
0 $1 Rounding radius*
0 $2 $3 $4 $5 $6 $7 $8 $9 X,Y pos of 4 corners*
0 Add a 4 corners polygon primitive as box body*
4,1,4,$2,$3,$4,$5,$6,$7,$8,$9,$2,$3,0*
0 Add four circle primitives for the rounded corners*
1,1,$1+$1,$2,$3*
1,1,$1+$1,$4,$5*
1,1,$1+$1,$6,$7*
1,1,$1+$1,$8,$9*
0 Add four rect primitives between the rounded corners*
20,1,$1+$1,$2,$3,$4,$5,0*
20,1,$1+$1,$4,$5,$6,$7,0*
20,1,$1+$1,$6,$7,$8,$9,0*
20,1,$1+$1,$8,$9,$2,$3,0*%
G04 Aperture macros list end*
%ADD10C,0.000000*%
%ADD11R,0.280000X0.850000*%
%ADD12R,0.850000X0.280000*%
%ADD13C,0.600000*%
%ADD14RoundRect,0.200000X0.200000X0.275000X-0.200000X0.275000X-0.200000X-0.275000X0.200000X-0.275000X0*%
%ADD15R,1.700000X1.700000*%
%ADD16O,1.700000X1.700000*%
%ADD17R,3.500000X2.400000*%
%ADD18R,0.965200X0.431800*%
%ADD19R,3.454400X4.343400*%
%ADD20RoundRect,0.200000X-0.200000X-0.275000X0.200000X-0.275000X0.200000X0.275000X-0.200000X0.275000X0*%
%ADD21R,3.500000X0.250000*%
%ADD22R,4.000000X0.250000*%
%ADD23RoundRect,0.250000X-0.475000X0.250000X-0.475000X-0.250000X0.475000X-0.250000X0.475000X0.250000X0*%
%ADD24RoundRect,0.225000X-0.225000X-0.250000X0.225000X-0.250000X0.225000X0.250000X-0.225000X0.250000X0*%
%ADD25RoundRect,0.225000X-0.250000X0.225000X-0.250000X-0.225000X0.250000X-0.225000X0.250000X0.225000X0*%
%ADD26RoundRect,0.225000X0.225000X0.250000X-0.225000X0.250000X-0.225000X-0.250000X0.225000X-0.250000X0*%
%ADD27RoundRect,0.225000X0.250000X-0.225000X0.250000X0.225000X-0.250000X0.225000X-0.250000X-0.225000X0*%
%ADD28RoundRect,0.250000X0.475000X-0.250000X0.475000X0.250000X-0.475000X0.250000X-0.475000X-0.250000X0*%
%ADD29RoundRect,0.050000X-0.387500X-0.050000X0.387500X-0.050000X0.387500X0.050000X-0.387500X0.050000X0*%
%ADD30RoundRect,0.050000X-0.050000X-0.387500X0.050000X-0.387500X0.050000X0.387500X-0.050000X0.387500X0*%
%ADD31RoundRect,0.144000X-1.456000X-1.456000X1.456000X-1.456000X1.456000X1.456000X-1.456000X1.456000X0*%
%ADD32C,2.700000*%
%ADD33RoundRect,0.250000X-0.250000X-0.475000X0.250000X-0.475000X0.250000X0.475000X-0.250000X0.475000X0*%
%ADD34R,1.500000X0.900000*%
%ADD35R,0.220000X0.760000*%
%ADD36RoundRect,0.250000X0.250000X0.475000X-0.250000X0.475000X-0.250000X-0.475000X0.250000X-0.475000X0*%
%ADD37R,1.750000X0.700000*%
%ADD38R,1.000000X1.450000*%
%ADD39R,1.550000X1.000000*%
%ADD40R,1.500000X0.800000*%
%ADD41R,1.500000X1.300000*%
%ADD42R,1.500000X1.500000*%
%ADD43R,1.400000X0.800000*%
%ADD44R,1.500000X1.000000*%
%ADD45RoundRect,0.062500X0.350000X-0.062500X0.350000X0.062500X-0.350000X0.062500X-0.350000X-0.062500X0*%
%ADD46RoundRect,0.062500X0.062500X-0.350000X0.062500X0.350000X-0.062500X0.350000X-0.062500X-0.350000X0*%
%ADD47R,2.000000X1.000000*%
%ADD48C,0.410000*%
G04 APERTURE END LIST*
D10*
G36*
X85503296Y-111026997D02*
G01*
X84514103Y-111026997D01*
X84514103Y-110607805D01*
X85503296Y-110607805D01*
X85503296Y-111026997D01*
G37*
G36*
X87693297Y-108336995D02*
G01*
X87274103Y-108336995D01*
X87274103Y-107347804D01*
X87693297Y-107347804D01*
X87693297Y-108336995D01*
G37*
G36*
X85503296Y-110526995D02*
G01*
X84514103Y-110526995D01*
X84514103Y-110107804D01*
X85503296Y-110107804D01*
X85503296Y-110526995D01*
G37*
G36*
X85503296Y-108526997D02*
G01*
X84514103Y-108526997D01*
X84514103Y-108107805D01*
X85503296Y-108107805D01*
X85503296Y-108526997D01*
G37*
G36*
X85503296Y-109026996D02*
G01*
X84514103Y-109026996D01*
X84514103Y-108607804D01*
X85503296Y-108607804D01*
X85503296Y-109026996D01*
G37*
G36*
X88953297Y-112026995D02*
G01*
X87964104Y-112026995D01*
X87964104Y-111607803D01*
X88953297Y-111607803D01*
X88953297Y-112026995D01*
G37*
G36*
X87693297Y-112786996D02*
G01*
X87274103Y-112786996D01*
X87274103Y-111797805D01*
X87693297Y-111797805D01*
X87693297Y-112786996D01*
G37*
G36*
X87822200Y-109867400D02*
G01*
X85645200Y-109867400D01*
X85645200Y-109480000D01*
X87822200Y-109480000D01*
X87822200Y-109867400D01*
G37*
G36*
X88953297Y-109526995D02*
G01*
X87964104Y-109526995D01*
X87964104Y-109107803D01*
X88953297Y-109107803D01*
X88953297Y-109526995D01*
G37*
G36*
X88953297Y-110026996D02*
G01*
X87964104Y-110026996D01*
X87964104Y-109607805D01*
X88953297Y-109607805D01*
X88953297Y-110026996D01*
G37*
G36*
X85503296Y-109526997D02*
G01*
X84514103Y-109526997D01*
X84514103Y-109107803D01*
X85503296Y-109107803D01*
X85503296Y-109526997D01*
G37*
G36*
X87822200Y-111655899D02*
G01*
X85645200Y-111655899D01*
X85645200Y-111054800D01*
X87822200Y-111054800D01*
X87822200Y-111655899D01*
G37*
G36*
X88953297Y-109026996D02*
G01*
X87964104Y-109026996D01*
X87964104Y-108607804D01*
X88953297Y-108607804D01*
X88953297Y-109026996D01*
G37*
G36*
X86140000Y-111655899D02*
G01*
X85645200Y-111655899D01*
X85645200Y-108478901D01*
X86140000Y-108478901D01*
X86140000Y-111655899D01*
G37*
G36*
X88953297Y-111026997D02*
G01*
X87964104Y-111026997D01*
X87964104Y-110607803D01*
X88953297Y-110607803D01*
X88953297Y-111026997D01*
G37*
G36*
X87822200Y-110654800D02*
G01*
X85645200Y-110654800D01*
X85645200Y-110267400D01*
X87822200Y-110267400D01*
X87822200Y-110654800D01*
G37*
G36*
X88953297Y-110526995D02*
G01*
X87964104Y-110526995D01*
X87964104Y-110107804D01*
X88953297Y-110107804D01*
X88953297Y-110526995D01*
G37*
G36*
X88953297Y-108526997D02*
G01*
X87964104Y-108526997D01*
X87964104Y-108107803D01*
X88953297Y-108107803D01*
X88953297Y-108526997D01*
G37*
G36*
X87822200Y-111655899D02*
G01*
X87327400Y-111655899D01*
X87327400Y-108478901D01*
X87822200Y-108478901D01*
X87822200Y-111655899D01*
G37*
G36*
X86193297Y-108336995D02*
G01*
X85774103Y-108336995D01*
X85774103Y-107347804D01*
X86193297Y-107347804D01*
X86193297Y-108336995D01*
G37*
G36*
X86193297Y-112786996D02*
G01*
X85774103Y-112786996D01*
X85774103Y-111797805D01*
X86193297Y-111797805D01*
X86193297Y-112786996D01*
G37*
G36*
X88953297Y-111526996D02*
G01*
X87964104Y-111526996D01*
X87964104Y-111107804D01*
X88953297Y-111107804D01*
X88953297Y-111526996D01*
G37*
G36*
X85503296Y-112026997D02*
G01*
X84514103Y-112026997D01*
X84514103Y-111607803D01*
X85503296Y-111607803D01*
X85503296Y-112026997D01*
G37*
G36*
X87822200Y-109080000D02*
G01*
X85645200Y-109080000D01*
X85645200Y-108478901D01*
X87822200Y-108478901D01*
X87822200Y-109080000D01*
G37*
G36*
X85503296Y-110026996D02*
G01*
X84514103Y-110026996D01*
X84514103Y-109607805D01*
X85503296Y-109607805D01*
X85503296Y-110026996D01*
G37*
G36*
X86927400Y-111655899D02*
G01*
X86540000Y-111655899D01*
X86540000Y-108478901D01*
X86927400Y-108478901D01*
X86927400Y-111655899D01*
G37*
G36*
X85503296Y-111526996D02*
G01*
X84514103Y-111526996D01*
X84514103Y-111107804D01*
X85503296Y-111107804D01*
X85503296Y-111526996D01*
G37*
D11*
X87483701Y-112292399D03*
D12*
X88458700Y-111817399D03*
X88458700Y-111317400D03*
X88458700Y-110817401D03*
X88458700Y-110317400D03*
X88458700Y-109817400D03*
X88458700Y-109317399D03*
X88458700Y-108817400D03*
X88458700Y-108317401D03*
D11*
X87483701Y-107842401D03*
X85983699Y-107842401D03*
D12*
X85008700Y-108317401D03*
X85008700Y-108817400D03*
X85008700Y-109317399D03*
X85008700Y-109817400D03*
X85008700Y-110317400D03*
X85008700Y-110817401D03*
X85008700Y-111317400D03*
X85008700Y-111817399D03*
D11*
X85983699Y-112292399D03*
D13*
X87127400Y-110067400D03*
X86340000Y-110067400D03*
X87127400Y-109280000D03*
X87127400Y-110854800D03*
X86340000Y-110854800D03*
X86340000Y-109280000D03*
D14*
X114695000Y-89235000D03*
X113045000Y-89235000D03*
X113020000Y-87585000D03*
X114670000Y-87585000D03*
D15*
X82200000Y-78605000D03*
D16*
X79660000Y-78605000D03*
X82200000Y-81145000D03*
X79660000Y-81145000D03*
X82200000Y-83685000D03*
X79660000Y-83685000D03*
X82200000Y-86225000D03*
X79660000Y-86225000D03*
X82200000Y-88765000D03*
X79660000Y-88765000D03*
X82200000Y-91305000D03*
X79660000Y-91305000D03*
X82200000Y-93845000D03*
X79660000Y-93845000D03*
D17*
X95415000Y-111705000D03*
X100615000Y-111705000D03*
D18*
X90469800Y-85375000D03*
X90469800Y-86645000D03*
X90469800Y-87915000D03*
X90469800Y-89185000D03*
X96210200Y-89185000D03*
X96210200Y-87915000D03*
X96210200Y-86645000D03*
X96210200Y-85375000D03*
D19*
X93340000Y-87280000D03*
D20*
X85190000Y-106255000D03*
X86840000Y-106255000D03*
D21*
X118690000Y-83530000D03*
X118690000Y-84030000D03*
X118690000Y-85030000D03*
X118690000Y-85530000D03*
X118690000Y-86030000D03*
X118690000Y-86530000D03*
X118690000Y-87530000D03*
X118690000Y-88030000D03*
D22*
X118940000Y-83030000D03*
X118940000Y-84530000D03*
X118940000Y-87030000D03*
X118940000Y-88530000D03*
D15*
X90510000Y-117105000D03*
D16*
X93050000Y-117105000D03*
X95590000Y-117105000D03*
D15*
X80350000Y-117180000D03*
D16*
X82890000Y-117180000D03*
X85430000Y-117180000D03*
D15*
X72200000Y-97605000D03*
D16*
X74740000Y-97605000D03*
X77280000Y-97605000D03*
X79820000Y-97605000D03*
X82360000Y-97605000D03*
X84900000Y-97605000D03*
D23*
X107965000Y-83055000D03*
X107965000Y-81155000D03*
D15*
X90990000Y-76940000D03*
D16*
X90990000Y-74400000D03*
D24*
X104940000Y-96098000D03*
X106490000Y-96098000D03*
D25*
X93990000Y-101505000D03*
X93990000Y-103055000D03*
D26*
X95915000Y-83230000D03*
X94365000Y-83230000D03*
D25*
X89500000Y-81540000D03*
X89500000Y-83090000D03*
D27*
X91000000Y-83090000D03*
X91000000Y-81540000D03*
X99771400Y-93164600D03*
X99771400Y-91614600D03*
D25*
X100736600Y-88604700D03*
X100736600Y-90154700D03*
X102679700Y-106232300D03*
X102679700Y-107782300D03*
D28*
X113915000Y-81630000D03*
X113915000Y-83530000D03*
D27*
X94690000Y-96775000D03*
X94690000Y-95225000D03*
D26*
X108390000Y-91205000D03*
X106840000Y-91205000D03*
D29*
X96562500Y-97400000D03*
X96562500Y-97800000D03*
X96562500Y-98200000D03*
X96562500Y-98600000D03*
X96562500Y-99000000D03*
X96562500Y-99400000D03*
X96562500Y-99800000D03*
X96562500Y-100200000D03*
X96562500Y-100600000D03*
X96562500Y-101000000D03*
X96562500Y-101400000D03*
X96562500Y-101800000D03*
X96562500Y-102200000D03*
X96562500Y-102600000D03*
D30*
X97400000Y-103437500D03*
X97800000Y-103437500D03*
X98200000Y-103437500D03*
X98600000Y-103437500D03*
X99000000Y-103437500D03*
X99400000Y-103437500D03*
X99800000Y-103437500D03*
X100200000Y-103437500D03*
X100600000Y-103437500D03*
X101000000Y-103437500D03*
X101400000Y-103437500D03*
X101800000Y-103437500D03*
X102200000Y-103437500D03*
X102600000Y-103437500D03*
D29*
X103437500Y-102600000D03*
X103437500Y-102200000D03*
X103437500Y-101800000D03*
X103437500Y-101400000D03*
X103437500Y-101000000D03*
X103437500Y-100600000D03*
X103437500Y-100200000D03*
X103437500Y-99800000D03*
X103437500Y-99400000D03*
X103437500Y-99000000D03*
X103437500Y-98600000D03*
X103437500Y-98200000D03*
X103437500Y-97800000D03*
X103437500Y-97400000D03*
D30*
X102600000Y-96562500D03*
X102200000Y-96562500D03*
X101800000Y-96562500D03*
X101400000Y-96562500D03*
X101000000Y-96562500D03*
X100600000Y-96562500D03*
X100200000Y-96562500D03*
X99800000Y-96562500D03*
X99400000Y-96562500D03*
X99000000Y-96562500D03*
X98600000Y-96562500D03*
X98200000Y-96562500D03*
X97800000Y-96562500D03*
X97400000Y-96562500D03*
D31*
X100000000Y-100000000D03*
D26*
X97290000Y-109000000D03*
X95740000Y-109000000D03*
D32*
X117290000Y-35000000D03*
X117290000Y-117180000D03*
D27*
X98272800Y-93151800D03*
X98272800Y-91601800D03*
X104826000Y-94206000D03*
X104826000Y-92656000D03*
D32*
X73190000Y-35000000D03*
X73190000Y-117180000D03*
D33*
X109040000Y-93300000D03*
X110940000Y-93300000D03*
D24*
X106133800Y-101457400D03*
X107683800Y-101457400D03*
D25*
X100127000Y-105991000D03*
X100127000Y-107541000D03*
D27*
X103238500Y-94244100D03*
X103238500Y-92694100D03*
D25*
X102222500Y-88604700D03*
X102222500Y-90154700D03*
X98615700Y-105978300D03*
X98615700Y-107528300D03*
D24*
X98710000Y-109000000D03*
X100260000Y-109000000D03*
D26*
X84890000Y-104730000D03*
X86440000Y-104730000D03*
D27*
X90490000Y-110680000D03*
X90490000Y-112230000D03*
D20*
X117665000Y-103900000D03*
X119315000Y-103900000D03*
D14*
X86490000Y-100180000D03*
X84840000Y-100180000D03*
X89515000Y-100255000D03*
X87865000Y-100255000D03*
D15*
X117290000Y-112100000D03*
D16*
X117290000Y-109560000D03*
X117290000Y-107020000D03*
D34*
X110765000Y-82105000D03*
D35*
X109965000Y-81120000D03*
X110365000Y-81120000D03*
X110765000Y-81120000D03*
X111165000Y-81120000D03*
X111565000Y-81120000D03*
X111565000Y-83090000D03*
X111165000Y-83090000D03*
X110765000Y-83090000D03*
X110365000Y-83090000D03*
X109965000Y-83090000D03*
D14*
X86490000Y-101680000D03*
X84840000Y-101680000D03*
D36*
X109515000Y-78305000D03*
X111415000Y-78305000D03*
D37*
X72040000Y-110075000D03*
X72040000Y-108975000D03*
X72040000Y-107875000D03*
X72040000Y-106775000D03*
X72040000Y-105675000D03*
X72040000Y-104575000D03*
X72040000Y-103475000D03*
X72040000Y-102375000D03*
D38*
X81265000Y-101250000D03*
D39*
X82840000Y-112475000D03*
D40*
X79765000Y-100925000D03*
D41*
X72165000Y-101175000D03*
D42*
X72165000Y-112525000D03*
D43*
X80415000Y-112875000D03*
D26*
X83440000Y-114605000D03*
X84990000Y-114605000D03*
D23*
X77390000Y-116705000D03*
X77390000Y-114805000D03*
D20*
X113365000Y-93300000D03*
X115015000Y-93300000D03*
D15*
X117290000Y-78080000D03*
D16*
X117290000Y-75540000D03*
D44*
X113465000Y-77755000D03*
X113465000Y-76455000D03*
X105665000Y-82755000D03*
X105665000Y-81455000D03*
D45*
X88202500Y-103655000D03*
D46*
X88640000Y-104592500D03*
X89140000Y-104592500D03*
X89640000Y-104592500D03*
X90140000Y-104592500D03*
X90640000Y-104592500D03*
X91140000Y-104592500D03*
D45*
X91577500Y-103655000D03*
X91577500Y-103155000D03*
D46*
X91140000Y-102217500D03*
X90640000Y-102217500D03*
X90140000Y-102217500D03*
X89640000Y-102217500D03*
X89140000Y-102217500D03*
X88640000Y-102217500D03*
D45*
X88202500Y-103155000D03*
D47*
X89890000Y-103405000D03*
D16*
X108290000Y-117180000D03*
X105750000Y-117180000D03*
D15*
X103210000Y-117180000D03*
D20*
X105165000Y-105230000D03*
X106815000Y-105230000D03*
D48*
X115954000Y-97876000D03*
X115954000Y-98876000D03*
X115954000Y-99876000D03*
X115954000Y-100876000D03*
X114954000Y-96876000D03*
X114954000Y-97876000D03*
X114954000Y-98876000D03*
X114954000Y-99876000D03*
X114954000Y-100876000D03*
X113954000Y-96876000D03*
X113954000Y-97876000D03*
X113954000Y-98876000D03*
X113954000Y-99876000D03*
X113954000Y-100876000D03*
X112954000Y-96876000D03*
X112954000Y-97876000D03*
X112954000Y-98876000D03*
X112954000Y-99876000D03*
X112954000Y-100876000D03*
X111954000Y-96876000D03*
X111954000Y-97876000D03*
X111954000Y-98876000D03*
X111954000Y-99876000D03*
X111954000Y-100876000D03*
D26*
X86440000Y-103205000D03*
X84890000Y-103205000D03*
M02*
