G04 #@! TF.GenerationSoftware,KiCad,Pcbnew,8.0.1-8.0.1-1~ubuntu22.04.1*
G04 #@! TF.CreationDate,2024-06-03T13:26:47-07:00*
G04 #@! TF.ProjectId,emu_brd,656d755f-6272-4642-9e6b-696361645f70,REV1*
G04 #@! TF.SameCoordinates,Original*
G04 #@! TF.FileFunction,Soldermask,Bot*
G04 #@! TF.FilePolarity,Negative*
%FSLAX46Y46*%
G04 Gerber Fmt 4.6, Leading zero omitted, Abs format (unit mm)*
G04 Created by KiCad (PCBNEW 8.0.1-8.0.1-1~ubuntu22.04.1) date 2024-06-03 13:26:47*
%MOMM*%
%LPD*%
G01*
G04 APERTURE LIST*
%ADD10C,0.600000*%
%ADD11R,1.700000X1.700000*%
%ADD12O,1.700000X1.700000*%
%ADD13R,4.000000X0.250000*%
%ADD14R,3.500000X0.250000*%
%ADD15C,2.700000*%
G04 APERTURE END LIST*
D10*
X87127400Y-110067400D03*
X86340000Y-110067400D03*
X87127400Y-109280000D03*
X87127400Y-110854800D03*
X86340000Y-110854800D03*
X86340000Y-109280000D03*
D11*
X82200000Y-78605000D03*
D12*
X79660000Y-78605000D03*
X82200000Y-81145000D03*
X79660000Y-81145000D03*
X82200000Y-83685000D03*
X79660000Y-83685000D03*
X82200000Y-86225000D03*
X79660000Y-86225000D03*
X82200000Y-88765000D03*
X79660000Y-88765000D03*
X82200000Y-91305000D03*
X79660000Y-91305000D03*
X82200000Y-93845000D03*
X79660000Y-93845000D03*
D13*
X118940000Y-83030000D03*
X118940000Y-84530000D03*
X118940000Y-87030000D03*
X118940000Y-88530000D03*
D14*
X118690000Y-83530000D03*
X118690000Y-84030000D03*
X118690000Y-85030000D03*
X118690000Y-85530000D03*
X118690000Y-86030000D03*
X118690000Y-86530000D03*
X118690000Y-87530000D03*
X118690000Y-88030000D03*
D11*
X90510000Y-117105000D03*
D12*
X93050000Y-117105000D03*
X95590000Y-117105000D03*
D11*
X80350000Y-117180000D03*
D12*
X82890000Y-117180000D03*
X85430000Y-117180000D03*
D11*
X72200000Y-97605000D03*
D12*
X74740000Y-97605000D03*
X77280000Y-97605000D03*
X79820000Y-97605000D03*
X82360000Y-97605000D03*
X84900000Y-97605000D03*
D11*
X90990000Y-76940000D03*
D12*
X90990000Y-74400000D03*
D15*
X117290000Y-35000000D03*
X117290000Y-117180000D03*
X73190000Y-35000000D03*
X73190000Y-117180000D03*
D11*
X117290000Y-112100000D03*
D12*
X117290000Y-109560000D03*
X117290000Y-107020000D03*
D11*
X117290000Y-78080000D03*
D12*
X117290000Y-75540000D03*
X108290000Y-117180000D03*
X105750000Y-117180000D03*
D11*
X103210000Y-117180000D03*
M02*
