M48
; DRILL file {KiCad 8.0.1-8.0.1-1~ubuntu22.04.1} date 2024-06-03T13:27:44-0700
; FORMAT={-:-/ absolute / metric / decimal}
; #@! TF.CreationDate,2024-06-03T13:27:44-07:00
; #@! TF.GenerationSoftware,Kicad,Pcbnew,8.0.1-8.0.1-1~ubuntu22.04.1
; #@! TF.FileFunction,Plated,1,2,PTH
FMAT,2
METRIC
; #@! TA.AperFunction,Plated,PTH,ViaDrill
T1C0.350
; #@! TA.AperFunction,Plated,PTH,ComponentDrill
T2C0.350
; #@! TA.AperFunction,Plated,PTH,ComponentDrill
T3C1.000
%
G90
G05
T1
X70.29Y-95.83
X70.29Y-106.43
X73.197Y-104.6
X73.26Y-101.07
X73.515Y-112.53
X73.54Y-105.675
X73.565Y-102.375
X73.565Y-103.475
X74.25Y-109.82
X74.358Y-108.987
X74.39Y-107.88
X77.365Y-111.755
X77.365Y-117.83
X79.64Y-104.448
X79.79Y-100.2
X80.165Y-105.13
X80.39Y-114.1
X80.815Y-105.655
X83.035Y-110.327
X83.615Y-110.805
X83.79Y-108.805
X84.29Y-80.4
X84.89Y-103.955
X84.99Y-112.58
X87.285Y-103.117
X87.915Y-102.205
X88.215Y-105.73
X89.24Y-103.255
X89.69Y-97.7
X89.94Y-103.555
X90.515Y-103.23
X91.565Y-110.68
X92.49Y-94.9
X92.71Y-111.03
X92.74Y-109.15
X92.815Y-113.205
X93.349Y-83.575
X93.89Y-94.3
X93.961Y-105.276
X93.99Y-104.183
X94.79Y-109.0
X95.24Y-100.78
X97.391Y-106.53
X98.015Y-111.705
X98.324Y-90.573
X98.984Y-94.193
X99.619Y-90.497
X100.6Y-102.1
X100.606Y-94.936
X100.69Y-97.91
X100.8Y-105.2
X101.397Y-109.052
X101.422Y-107.553
X102.921Y-95.463
X103.05Y-109.21
X103.05Y-110.99
X103.065Y-113.23
X103.44Y-106.93
X103.771Y-91.716
X104.75Y-91.678
X105.08Y-101.559
X105.09Y-84.105
X105.09Y-86.955
X105.29Y-106.93
X105.545Y-91.18
X106.04Y-84.105
X106.04Y-86.955
X106.899Y-100.8
X107.221Y-98.429
X107.38Y-95.873
X108.165Y-101.424
X108.211Y-97.6
X108.49Y-100.167
X109.13Y-76.92
X109.165Y-82.305
X110.99Y-99.876
X110.99Y-101.9
X110.99Y-105.005
X111.465Y-77.005
X112.19Y-93.3
X112.24Y-82.105
X112.513Y-101.582
X113.115Y-82.105
X115.865Y-84.105
X115.865Y-87.48
X116.115Y-88.53
X116.315Y-83.03
X116.49Y-98.4
X116.79Y-99.9
X118.59Y-103.1
T2
X86.34Y-109.28
X86.34Y-110.067
X86.34Y-110.855
X87.127Y-109.28
X87.127Y-110.067
X87.127Y-110.855
X98.725Y-98.725
X98.725Y-100.0
X98.725Y-101.275
X100.0Y-98.725
X100.0Y-100.0
X100.0Y-101.275
X101.275Y-98.725
X101.275Y-100.0
X101.275Y-101.275
T3
X72.2Y-97.605
X74.74Y-97.605
X77.28Y-97.605
X79.66Y-78.605
X79.66Y-81.145
X79.66Y-83.685
X79.66Y-86.225
X79.66Y-88.765
X79.66Y-91.305
X79.66Y-93.845
X79.82Y-97.605
X80.35Y-117.18
X82.2Y-78.605
X82.2Y-81.145
X82.2Y-83.685
X82.2Y-86.225
X82.2Y-88.765
X82.2Y-91.305
X82.2Y-93.845
X82.36Y-97.605
X82.89Y-117.18
X84.9Y-97.605
X85.43Y-117.18
X90.51Y-117.105
X90.99Y-74.4
X90.99Y-76.94
X93.05Y-117.105
X95.59Y-117.105
X103.21Y-117.18
X105.75Y-117.18
X108.29Y-117.18
X117.29Y-75.54
X117.29Y-78.08
X117.29Y-107.02
X117.29Y-109.56
X117.29Y-112.1
M30
