G04 #@! TF.GenerationSoftware,KiCad,Pcbnew,8.0.1-8.0.1-1~ubuntu22.04.1*
G04 #@! TF.CreationDate,2024-06-03T13:26:47-07:00*
G04 #@! TF.ProjectId,emu_brd,656d755f-6272-4642-9e6b-696361645f70,REV1*
G04 #@! TF.SameCoordinates,Original*
G04 #@! TF.FileFunction,Profile,NP*
%FSLAX46Y46*%
G04 Gerber Fmt 4.6, Leading zero omitted, Abs format (unit mm)*
G04 Created by KiCad (PCBNEW 8.0.1-8.0.1-1~ubuntu22.04.1) date 2024-06-03 13:26:47*
%MOMM*%
%LPD*%
G01*
G04 APERTURE LIST*
G04 #@! TA.AperFunction,Profile*
%ADD10C,0.050000*%
G04 #@! TD*
G04 #@! TA.AperFunction,Profile*
%ADD11C,0.100000*%
G04 #@! TD*
G04 APERTURE END LIST*
D10*
X72390000Y-31000000D02*
X118390000Y-31000000D01*
D11*
X121390000Y-34000000D02*
X121390000Y-81245000D01*
X121390000Y-90280000D02*
X121390000Y-118000000D01*
X118390000Y-121000000D02*
X72390000Y-121000000D01*
X69390000Y-118000000D02*
X69390000Y-34000000D01*
X121390000Y-118000000D02*
G75*
G02*
X118390000Y-121000000I-3000000J0D01*
G01*
X69390000Y-34000000D02*
G75*
G02*
X72390000Y-31000000I3000000J0D01*
G01*
X72390000Y-121000000D02*
G75*
G02*
X69390000Y-118000000I0J3000000D01*
G01*
X118390000Y-31000000D02*
G75*
G02*
X121390000Y-34000000I0J-3000000D01*
G01*
X121390000Y-82735000D02*
X121390000Y-88825000D01*
X120640000Y-82435000D02*
X120140000Y-82435000D01*
X120640000Y-89125000D02*
X120140000Y-89125000D01*
X121390000Y-82735000D02*
X120640000Y-82435000D01*
X119890000Y-82685000D02*
X118890000Y-82685000D01*
X118890000Y-82685000D02*
G75*
G02*
X118640000Y-82435000I0J250000D01*
G01*
X120140000Y-82435000D02*
G75*
G02*
X119890000Y-82685000I-250000J0D01*
G01*
X119890000Y-88875000D02*
X118890000Y-88875000D01*
X118640000Y-89125000D02*
G75*
G02*
X118890000Y-88875000I250000J0D01*
G01*
X119890000Y-88875000D02*
G75*
G02*
X120140000Y-89125000I0J-250000D01*
G01*
X121390000Y-88825000D02*
X120640000Y-89125000D01*
X118640000Y-89125000D02*
X116940000Y-89125000D01*
X118640000Y-82435000D02*
X116940000Y-82435000D01*
X121390000Y-81245000D02*
X121390000Y-81395000D01*
X121390000Y-81395000D02*
G75*
G02*
X121190000Y-81595000I-200000J0D01*
G01*
X121190000Y-81595000D02*
X116940000Y-81595000D01*
X121390000Y-90165000D02*
X121390000Y-90280000D01*
X121190000Y-89965000D02*
G75*
G02*
X121390000Y-90165000I0J-200000D01*
G01*
X121190000Y-89965000D02*
X116940000Y-89965000D01*
X116740000Y-89325000D02*
G75*
G02*
X116940000Y-89125000I200000J0D01*
G01*
X116940000Y-89965000D02*
G75*
G02*
X116740000Y-89765000I0J200000D01*
G01*
X116740000Y-89325000D02*
X116740000Y-89765000D01*
X116740000Y-81795000D02*
G75*
G02*
X116940000Y-81595000I200000J0D01*
G01*
X116940000Y-82435000D02*
G75*
G02*
X116740000Y-82235000I0J200000D01*
G01*
X116740000Y-81795000D02*
X116740000Y-82235000D01*
M02*
