%TF.GenerationSoftware,KiCad,Pcbnew,8.0.1-8.0.1-1~ubuntu22.04.1*%
%TF.CreationDate,2024-06-03T13:27:47-07:00*%
%TF.ProjectId,emu_brd,656d755f-6272-4642-9e6b-696361645f70,REV1*%
%TF.SameCoordinates,Original*%
%TF.FileFunction,Drillmap*%
%TF.FilePolarity,Positive*%
%FSLAX45Y45*%
G04 Gerber Fmt 4.5, Leading zero omitted, Abs format (unit mm)*
G04 Created by KiCad (PCBNEW 8.0.1-8.0.1-1~ubuntu22.04.1) date 2024-06-03 13:27:47*
%MOMM*%
%LPD*%
G01*
G04 APERTURE LIST*
%ADD10C,0.050000*%
%ADD11C,0.100000*%
%ADD12C,0.200000*%
%ADD13C,0.270000*%
G04 APERTURE END LIST*
D10*
X7239000Y-3100000D02*
X11839000Y-3100000D01*
D11*
X12139000Y-3400000D02*
X12139000Y-8124500D01*
X12139000Y-9028000D02*
X12139000Y-11800000D01*
X11839000Y-12100000D02*
X7239000Y-12100000D01*
X6939000Y-11800000D02*
X6939000Y-3400000D01*
X12139000Y-11800000D02*
G75*
G02*
X11839000Y-12100000I-300000J0D01*
G01*
X6939000Y-3400000D02*
G75*
G02*
X7239000Y-3100000I300000J0D01*
G01*
X7239000Y-12100000D02*
G75*
G02*
X6939000Y-11800000I0J300000D01*
G01*
X11839000Y-3100000D02*
G75*
G02*
X12139000Y-3400000I0J-300000D01*
G01*
X12139000Y-8273500D02*
X12139000Y-8882500D01*
X12064000Y-8243500D02*
X12014000Y-8243500D01*
X12064000Y-8912500D02*
X12014000Y-8912500D01*
X12139000Y-8273500D02*
X12064000Y-8243500D01*
X11989000Y-8268500D02*
X11889000Y-8268500D01*
X11889000Y-8268500D02*
G75*
G02*
X11864000Y-8243500I0J25000D01*
G01*
X12014000Y-8243500D02*
G75*
G02*
X11989000Y-8268500I-25000J0D01*
G01*
X11989000Y-8887500D02*
X11889000Y-8887500D01*
X11864000Y-8912500D02*
G75*
G02*
X11889000Y-8887500I25000J0D01*
G01*
X11989000Y-8887500D02*
G75*
G02*
X12014000Y-8912500I0J-25000D01*
G01*
X12139000Y-8882500D02*
X12064000Y-8912500D01*
X11864000Y-8912500D02*
X11694000Y-8912500D01*
X11864000Y-8243500D02*
X11694000Y-8243500D01*
X12139000Y-8124500D02*
X12139000Y-8139500D01*
X12139000Y-8139500D02*
G75*
G02*
X12119000Y-8159500I-20000J0D01*
G01*
X12119000Y-8159500D02*
X11694000Y-8159500D01*
X12139000Y-9016500D02*
X12139000Y-9028000D01*
X12119000Y-8996500D02*
G75*
G02*
X12139000Y-9016500I0J-20000D01*
G01*
X12119000Y-8996500D02*
X11694000Y-8996500D01*
X11674000Y-8932500D02*
G75*
G02*
X11694000Y-8912500I20000J0D01*
G01*
X11694000Y-8996500D02*
G75*
G02*
X11674000Y-8976500I0J20000D01*
G01*
X11674000Y-8932500D02*
X11674000Y-8976500D01*
X11674000Y-8179500D02*
G75*
G02*
X11694000Y-8159500I20000J0D01*
G01*
X11694000Y-8243500D02*
G75*
G02*
X11674000Y-8223500I0J20000D01*
G01*
X11674000Y-8179500D02*
X11674000Y-8223500D01*
D12*
D13*
X7184000Y-3365000D02*
X7454000Y-3635000D01*
X7454000Y-3365000D02*
X7184000Y-3635000D01*
X7184000Y-11583000D02*
X7454000Y-11853000D01*
X7454000Y-11583000D02*
X7184000Y-11853000D01*
X11594000Y-3365000D02*
X11864000Y-3635000D01*
X11864000Y-3365000D02*
X11594000Y-3635000D01*
X11594000Y-11583000D02*
X11864000Y-11853000D01*
X11864000Y-11583000D02*
X11594000Y-11853000D01*
D12*
X7194777Y-12416484D02*
X7194777Y-12216484D01*
X7194777Y-12216484D02*
X7242396Y-12216484D01*
X7242396Y-12216484D02*
X7270967Y-12226008D01*
X7270967Y-12226008D02*
X7290015Y-12245055D01*
X7290015Y-12245055D02*
X7299539Y-12264103D01*
X7299539Y-12264103D02*
X7309062Y-12302198D01*
X7309062Y-12302198D02*
X7309062Y-12330769D01*
X7309062Y-12330769D02*
X7299539Y-12368865D01*
X7299539Y-12368865D02*
X7290015Y-12387912D01*
X7290015Y-12387912D02*
X7270967Y-12406960D01*
X7270967Y-12406960D02*
X7242396Y-12416484D01*
X7242396Y-12416484D02*
X7194777Y-12416484D01*
X7394777Y-12416484D02*
X7394777Y-12283150D01*
X7394777Y-12321246D02*
X7404301Y-12302198D01*
X7404301Y-12302198D02*
X7413824Y-12292674D01*
X7413824Y-12292674D02*
X7432872Y-12283150D01*
X7432872Y-12283150D02*
X7451920Y-12283150D01*
X7518586Y-12416484D02*
X7518586Y-12283150D01*
X7518586Y-12216484D02*
X7509062Y-12226008D01*
X7509062Y-12226008D02*
X7518586Y-12235531D01*
X7518586Y-12235531D02*
X7528110Y-12226008D01*
X7528110Y-12226008D02*
X7518586Y-12216484D01*
X7518586Y-12216484D02*
X7518586Y-12235531D01*
X7642396Y-12416484D02*
X7623348Y-12406960D01*
X7623348Y-12406960D02*
X7613824Y-12387912D01*
X7613824Y-12387912D02*
X7613824Y-12216484D01*
X7747158Y-12416484D02*
X7728110Y-12406960D01*
X7728110Y-12406960D02*
X7718586Y-12387912D01*
X7718586Y-12387912D02*
X7718586Y-12216484D01*
X7975729Y-12416484D02*
X7975729Y-12216484D01*
X7975729Y-12216484D02*
X8042396Y-12359341D01*
X8042396Y-12359341D02*
X8109062Y-12216484D01*
X8109062Y-12216484D02*
X8109062Y-12416484D01*
X8290015Y-12416484D02*
X8290015Y-12311722D01*
X8290015Y-12311722D02*
X8280491Y-12292674D01*
X8280491Y-12292674D02*
X8261443Y-12283150D01*
X8261443Y-12283150D02*
X8223348Y-12283150D01*
X8223348Y-12283150D02*
X8204301Y-12292674D01*
X8290015Y-12406960D02*
X8270967Y-12416484D01*
X8270967Y-12416484D02*
X8223348Y-12416484D01*
X8223348Y-12416484D02*
X8204301Y-12406960D01*
X8204301Y-12406960D02*
X8194777Y-12387912D01*
X8194777Y-12387912D02*
X8194777Y-12368865D01*
X8194777Y-12368865D02*
X8204301Y-12349817D01*
X8204301Y-12349817D02*
X8223348Y-12340293D01*
X8223348Y-12340293D02*
X8270967Y-12340293D01*
X8270967Y-12340293D02*
X8290015Y-12330769D01*
X8385253Y-12283150D02*
X8385253Y-12483150D01*
X8385253Y-12292674D02*
X8404301Y-12283150D01*
X8404301Y-12283150D02*
X8442396Y-12283150D01*
X8442396Y-12283150D02*
X8461444Y-12292674D01*
X8461444Y-12292674D02*
X8470967Y-12302198D01*
X8470967Y-12302198D02*
X8480491Y-12321246D01*
X8480491Y-12321246D02*
X8480491Y-12378388D01*
X8480491Y-12378388D02*
X8470967Y-12397436D01*
X8470967Y-12397436D02*
X8461444Y-12406960D01*
X8461444Y-12406960D02*
X8442396Y-12416484D01*
X8442396Y-12416484D02*
X8404301Y-12416484D01*
X8404301Y-12416484D02*
X8385253Y-12406960D01*
X8566205Y-12397436D02*
X8575729Y-12406960D01*
X8575729Y-12406960D02*
X8566205Y-12416484D01*
X8566205Y-12416484D02*
X8556682Y-12406960D01*
X8556682Y-12406960D02*
X8566205Y-12397436D01*
X8566205Y-12397436D02*
X8566205Y-12416484D01*
X8566205Y-12292674D02*
X8575729Y-12302198D01*
X8575729Y-12302198D02*
X8566205Y-12311722D01*
X8566205Y-12311722D02*
X8556682Y-12302198D01*
X8556682Y-12302198D02*
X8566205Y-12292674D01*
X8566205Y-12292674D02*
X8566205Y-12311722D01*
X6734000Y-12645000D02*
X6934000Y-12845000D01*
X6934000Y-12645000D02*
X6734000Y-12845000D01*
X7185253Y-12655531D02*
X7194777Y-12646008D01*
X7194777Y-12646008D02*
X7213824Y-12636484D01*
X7213824Y-12636484D02*
X7261443Y-12636484D01*
X7261443Y-12636484D02*
X7280491Y-12646008D01*
X7280491Y-12646008D02*
X7290015Y-12655531D01*
X7290015Y-12655531D02*
X7299539Y-12674579D01*
X7299539Y-12674579D02*
X7299539Y-12693627D01*
X7299539Y-12693627D02*
X7290015Y-12722198D01*
X7290015Y-12722198D02*
X7175729Y-12836484D01*
X7175729Y-12836484D02*
X7299539Y-12836484D01*
X7385253Y-12817436D02*
X7394777Y-12826960D01*
X7394777Y-12826960D02*
X7385253Y-12836484D01*
X7385253Y-12836484D02*
X7375729Y-12826960D01*
X7375729Y-12826960D02*
X7385253Y-12817436D01*
X7385253Y-12817436D02*
X7385253Y-12836484D01*
X7461443Y-12636484D02*
X7594777Y-12636484D01*
X7594777Y-12636484D02*
X7509062Y-12836484D01*
X7709062Y-12636484D02*
X7728110Y-12636484D01*
X7728110Y-12636484D02*
X7747158Y-12646008D01*
X7747158Y-12646008D02*
X7756682Y-12655531D01*
X7756682Y-12655531D02*
X7766205Y-12674579D01*
X7766205Y-12674579D02*
X7775729Y-12712674D01*
X7775729Y-12712674D02*
X7775729Y-12760293D01*
X7775729Y-12760293D02*
X7766205Y-12798388D01*
X7766205Y-12798388D02*
X7756682Y-12817436D01*
X7756682Y-12817436D02*
X7747158Y-12826960D01*
X7747158Y-12826960D02*
X7728110Y-12836484D01*
X7728110Y-12836484D02*
X7709062Y-12836484D01*
X7709062Y-12836484D02*
X7690015Y-12826960D01*
X7690015Y-12826960D02*
X7680491Y-12817436D01*
X7680491Y-12817436D02*
X7670967Y-12798388D01*
X7670967Y-12798388D02*
X7661443Y-12760293D01*
X7661443Y-12760293D02*
X7661443Y-12712674D01*
X7661443Y-12712674D02*
X7670967Y-12674579D01*
X7670967Y-12674579D02*
X7680491Y-12655531D01*
X7680491Y-12655531D02*
X7690015Y-12646008D01*
X7690015Y-12646008D02*
X7709062Y-12636484D01*
X7899539Y-12636484D02*
X7918586Y-12636484D01*
X7918586Y-12636484D02*
X7937634Y-12646008D01*
X7937634Y-12646008D02*
X7947158Y-12655531D01*
X7947158Y-12655531D02*
X7956682Y-12674579D01*
X7956682Y-12674579D02*
X7966205Y-12712674D01*
X7966205Y-12712674D02*
X7966205Y-12760293D01*
X7966205Y-12760293D02*
X7956682Y-12798388D01*
X7956682Y-12798388D02*
X7947158Y-12817436D01*
X7947158Y-12817436D02*
X7937634Y-12826960D01*
X7937634Y-12826960D02*
X7918586Y-12836484D01*
X7918586Y-12836484D02*
X7899539Y-12836484D01*
X7899539Y-12836484D02*
X7880491Y-12826960D01*
X7880491Y-12826960D02*
X7870967Y-12817436D01*
X7870967Y-12817436D02*
X7861443Y-12798388D01*
X7861443Y-12798388D02*
X7851920Y-12760293D01*
X7851920Y-12760293D02*
X7851920Y-12712674D01*
X7851920Y-12712674D02*
X7861443Y-12674579D01*
X7861443Y-12674579D02*
X7870967Y-12655531D01*
X7870967Y-12655531D02*
X7880491Y-12646008D01*
X7880491Y-12646008D02*
X7899539Y-12636484D01*
X8051920Y-12836484D02*
X8051920Y-12703150D01*
X8051920Y-12722198D02*
X8061443Y-12712674D01*
X8061443Y-12712674D02*
X8080491Y-12703150D01*
X8080491Y-12703150D02*
X8109063Y-12703150D01*
X8109063Y-12703150D02*
X8128110Y-12712674D01*
X8128110Y-12712674D02*
X8137634Y-12731722D01*
X8137634Y-12731722D02*
X8137634Y-12836484D01*
X8137634Y-12731722D02*
X8147158Y-12712674D01*
X8147158Y-12712674D02*
X8166205Y-12703150D01*
X8166205Y-12703150D02*
X8194777Y-12703150D01*
X8194777Y-12703150D02*
X8213824Y-12712674D01*
X8213824Y-12712674D02*
X8223348Y-12731722D01*
X8223348Y-12731722D02*
X8223348Y-12836484D01*
X8318586Y-12836484D02*
X8318586Y-12703150D01*
X8318586Y-12722198D02*
X8328110Y-12712674D01*
X8328110Y-12712674D02*
X8347158Y-12703150D01*
X8347158Y-12703150D02*
X8375729Y-12703150D01*
X8375729Y-12703150D02*
X8394777Y-12712674D01*
X8394777Y-12712674D02*
X8404301Y-12731722D01*
X8404301Y-12731722D02*
X8404301Y-12836484D01*
X8404301Y-12731722D02*
X8413825Y-12712674D01*
X8413825Y-12712674D02*
X8432872Y-12703150D01*
X8432872Y-12703150D02*
X8461444Y-12703150D01*
X8461444Y-12703150D02*
X8480491Y-12712674D01*
X8480491Y-12712674D02*
X8490015Y-12731722D01*
X8490015Y-12731722D02*
X8490015Y-12836484D01*
X8880491Y-12626960D02*
X8709063Y-12884103D01*
X9137634Y-12636484D02*
X9156682Y-12636484D01*
X9156682Y-12636484D02*
X9175729Y-12646008D01*
X9175729Y-12646008D02*
X9185253Y-12655531D01*
X9185253Y-12655531D02*
X9194777Y-12674579D01*
X9194777Y-12674579D02*
X9204301Y-12712674D01*
X9204301Y-12712674D02*
X9204301Y-12760293D01*
X9204301Y-12760293D02*
X9194777Y-12798388D01*
X9194777Y-12798388D02*
X9185253Y-12817436D01*
X9185253Y-12817436D02*
X9175729Y-12826960D01*
X9175729Y-12826960D02*
X9156682Y-12836484D01*
X9156682Y-12836484D02*
X9137634Y-12836484D01*
X9137634Y-12836484D02*
X9118587Y-12826960D01*
X9118587Y-12826960D02*
X9109063Y-12817436D01*
X9109063Y-12817436D02*
X9099539Y-12798388D01*
X9099539Y-12798388D02*
X9090015Y-12760293D01*
X9090015Y-12760293D02*
X9090015Y-12712674D01*
X9090015Y-12712674D02*
X9099539Y-12674579D01*
X9099539Y-12674579D02*
X9109063Y-12655531D01*
X9109063Y-12655531D02*
X9118587Y-12646008D01*
X9118587Y-12646008D02*
X9137634Y-12636484D01*
X9290015Y-12817436D02*
X9299539Y-12826960D01*
X9299539Y-12826960D02*
X9290015Y-12836484D01*
X9290015Y-12836484D02*
X9280491Y-12826960D01*
X9280491Y-12826960D02*
X9290015Y-12817436D01*
X9290015Y-12817436D02*
X9290015Y-12836484D01*
X9490015Y-12836484D02*
X9375729Y-12836484D01*
X9432872Y-12836484D02*
X9432872Y-12636484D01*
X9432872Y-12636484D02*
X9413825Y-12665055D01*
X9413825Y-12665055D02*
X9394777Y-12684103D01*
X9394777Y-12684103D02*
X9375729Y-12693627D01*
X9613825Y-12636484D02*
X9632872Y-12636484D01*
X9632872Y-12636484D02*
X9651920Y-12646008D01*
X9651920Y-12646008D02*
X9661444Y-12655531D01*
X9661444Y-12655531D02*
X9670968Y-12674579D01*
X9670968Y-12674579D02*
X9680491Y-12712674D01*
X9680491Y-12712674D02*
X9680491Y-12760293D01*
X9680491Y-12760293D02*
X9670968Y-12798388D01*
X9670968Y-12798388D02*
X9661444Y-12817436D01*
X9661444Y-12817436D02*
X9651920Y-12826960D01*
X9651920Y-12826960D02*
X9632872Y-12836484D01*
X9632872Y-12836484D02*
X9613825Y-12836484D01*
X9613825Y-12836484D02*
X9594777Y-12826960D01*
X9594777Y-12826960D02*
X9585253Y-12817436D01*
X9585253Y-12817436D02*
X9575729Y-12798388D01*
X9575729Y-12798388D02*
X9566206Y-12760293D01*
X9566206Y-12760293D02*
X9566206Y-12712674D01*
X9566206Y-12712674D02*
X9575729Y-12674579D01*
X9575729Y-12674579D02*
X9585253Y-12655531D01*
X9585253Y-12655531D02*
X9594777Y-12646008D01*
X9594777Y-12646008D02*
X9613825Y-12636484D01*
X9851920Y-12636484D02*
X9813825Y-12636484D01*
X9813825Y-12636484D02*
X9794777Y-12646008D01*
X9794777Y-12646008D02*
X9785253Y-12655531D01*
X9785253Y-12655531D02*
X9766206Y-12684103D01*
X9766206Y-12684103D02*
X9756682Y-12722198D01*
X9756682Y-12722198D02*
X9756682Y-12798388D01*
X9756682Y-12798388D02*
X9766206Y-12817436D01*
X9766206Y-12817436D02*
X9775729Y-12826960D01*
X9775729Y-12826960D02*
X9794777Y-12836484D01*
X9794777Y-12836484D02*
X9832872Y-12836484D01*
X9832872Y-12836484D02*
X9851920Y-12826960D01*
X9851920Y-12826960D02*
X9861444Y-12817436D01*
X9861444Y-12817436D02*
X9870968Y-12798388D01*
X9870968Y-12798388D02*
X9870968Y-12750769D01*
X9870968Y-12750769D02*
X9861444Y-12731722D01*
X9861444Y-12731722D02*
X9851920Y-12722198D01*
X9851920Y-12722198D02*
X9832872Y-12712674D01*
X9832872Y-12712674D02*
X9794777Y-12712674D01*
X9794777Y-12712674D02*
X9775729Y-12722198D01*
X9775729Y-12722198D02*
X9766206Y-12731722D01*
X9766206Y-12731722D02*
X9756682Y-12750769D01*
X9937634Y-12636484D02*
X10061444Y-12636484D01*
X10061444Y-12636484D02*
X9994777Y-12712674D01*
X9994777Y-12712674D02*
X10023349Y-12712674D01*
X10023349Y-12712674D02*
X10042396Y-12722198D01*
X10042396Y-12722198D02*
X10051920Y-12731722D01*
X10051920Y-12731722D02*
X10061444Y-12750769D01*
X10061444Y-12750769D02*
X10061444Y-12798388D01*
X10061444Y-12798388D02*
X10051920Y-12817436D01*
X10051920Y-12817436D02*
X10042396Y-12826960D01*
X10042396Y-12826960D02*
X10023349Y-12836484D01*
X10023349Y-12836484D02*
X9966206Y-12836484D01*
X9966206Y-12836484D02*
X9947158Y-12826960D01*
X9947158Y-12826960D02*
X9937634Y-12817436D01*
X10137634Y-12636484D02*
X10137634Y-12674579D01*
X10213825Y-12636484D02*
X10213825Y-12674579D01*
X10509063Y-12912674D02*
X10499539Y-12903150D01*
X10499539Y-12903150D02*
X10480491Y-12874579D01*
X10480491Y-12874579D02*
X10470968Y-12855531D01*
X10470968Y-12855531D02*
X10461444Y-12826960D01*
X10461444Y-12826960D02*
X10451920Y-12779341D01*
X10451920Y-12779341D02*
X10451920Y-12741246D01*
X10451920Y-12741246D02*
X10461444Y-12693627D01*
X10461444Y-12693627D02*
X10470968Y-12665055D01*
X10470968Y-12665055D02*
X10480491Y-12646008D01*
X10480491Y-12646008D02*
X10499539Y-12617436D01*
X10499539Y-12617436D02*
X10509063Y-12607912D01*
X10670968Y-12703150D02*
X10670968Y-12836484D01*
X10623349Y-12626960D02*
X10575730Y-12769817D01*
X10575730Y-12769817D02*
X10699539Y-12769817D01*
X10928111Y-12836484D02*
X10928111Y-12636484D01*
X11013825Y-12836484D02*
X11013825Y-12731722D01*
X11013825Y-12731722D02*
X11004301Y-12712674D01*
X11004301Y-12712674D02*
X10985253Y-12703150D01*
X10985253Y-12703150D02*
X10956682Y-12703150D01*
X10956682Y-12703150D02*
X10937634Y-12712674D01*
X10937634Y-12712674D02*
X10928111Y-12722198D01*
X11137634Y-12836484D02*
X11118587Y-12826960D01*
X11118587Y-12826960D02*
X11109063Y-12817436D01*
X11109063Y-12817436D02*
X11099539Y-12798388D01*
X11099539Y-12798388D02*
X11099539Y-12741246D01*
X11099539Y-12741246D02*
X11109063Y-12722198D01*
X11109063Y-12722198D02*
X11118587Y-12712674D01*
X11118587Y-12712674D02*
X11137634Y-12703150D01*
X11137634Y-12703150D02*
X11166206Y-12703150D01*
X11166206Y-12703150D02*
X11185253Y-12712674D01*
X11185253Y-12712674D02*
X11194777Y-12722198D01*
X11194777Y-12722198D02*
X11204301Y-12741246D01*
X11204301Y-12741246D02*
X11204301Y-12798388D01*
X11204301Y-12798388D02*
X11194777Y-12817436D01*
X11194777Y-12817436D02*
X11185253Y-12826960D01*
X11185253Y-12826960D02*
X11166206Y-12836484D01*
X11166206Y-12836484D02*
X11137634Y-12836484D01*
X11318587Y-12836484D02*
X11299539Y-12826960D01*
X11299539Y-12826960D02*
X11290015Y-12807912D01*
X11290015Y-12807912D02*
X11290015Y-12636484D01*
X11470968Y-12826960D02*
X11451920Y-12836484D01*
X11451920Y-12836484D02*
X11413825Y-12836484D01*
X11413825Y-12836484D02*
X11394777Y-12826960D01*
X11394777Y-12826960D02*
X11385253Y-12807912D01*
X11385253Y-12807912D02*
X11385253Y-12731722D01*
X11385253Y-12731722D02*
X11394777Y-12712674D01*
X11394777Y-12712674D02*
X11413825Y-12703150D01*
X11413825Y-12703150D02*
X11451920Y-12703150D01*
X11451920Y-12703150D02*
X11470968Y-12712674D01*
X11470968Y-12712674D02*
X11480491Y-12731722D01*
X11480491Y-12731722D02*
X11480491Y-12750769D01*
X11480491Y-12750769D02*
X11385253Y-12769817D01*
X11556682Y-12826960D02*
X11575730Y-12836484D01*
X11575730Y-12836484D02*
X11613825Y-12836484D01*
X11613825Y-12836484D02*
X11632872Y-12826960D01*
X11632872Y-12826960D02*
X11642396Y-12807912D01*
X11642396Y-12807912D02*
X11642396Y-12798388D01*
X11642396Y-12798388D02*
X11632872Y-12779341D01*
X11632872Y-12779341D02*
X11613825Y-12769817D01*
X11613825Y-12769817D02*
X11585253Y-12769817D01*
X11585253Y-12769817D02*
X11566206Y-12760293D01*
X11566206Y-12760293D02*
X11556682Y-12741246D01*
X11556682Y-12741246D02*
X11556682Y-12731722D01*
X11556682Y-12731722D02*
X11566206Y-12712674D01*
X11566206Y-12712674D02*
X11585253Y-12703150D01*
X11585253Y-12703150D02*
X11613825Y-12703150D01*
X11613825Y-12703150D02*
X11632872Y-12712674D01*
X11709063Y-12912674D02*
X11718587Y-12903150D01*
X11718587Y-12903150D02*
X11737634Y-12874579D01*
X11737634Y-12874579D02*
X11747158Y-12855531D01*
X11747158Y-12855531D02*
X11756682Y-12826960D01*
X11756682Y-12826960D02*
X11766206Y-12779341D01*
X11766206Y-12779341D02*
X11766206Y-12741246D01*
X11766206Y-12741246D02*
X11756682Y-12693627D01*
X11756682Y-12693627D02*
X11747158Y-12665055D01*
X11747158Y-12665055D02*
X11737634Y-12646008D01*
X11737634Y-12646008D02*
X11718587Y-12617436D01*
X11718587Y-12617436D02*
X11709063Y-12607912D01*
X12070968Y-12912674D02*
X12061444Y-12903150D01*
X12061444Y-12903150D02*
X12042396Y-12874579D01*
X12042396Y-12874579D02*
X12032872Y-12855531D01*
X12032872Y-12855531D02*
X12023349Y-12826960D01*
X12023349Y-12826960D02*
X12013825Y-12779341D01*
X12013825Y-12779341D02*
X12013825Y-12741246D01*
X12013825Y-12741246D02*
X12023349Y-12693627D01*
X12023349Y-12693627D02*
X12032872Y-12665055D01*
X12032872Y-12665055D02*
X12042396Y-12646008D01*
X12042396Y-12646008D02*
X12061444Y-12617436D01*
X12061444Y-12617436D02*
X12070968Y-12607912D01*
X12147158Y-12703150D02*
X12147158Y-12836484D01*
X12147158Y-12722198D02*
X12156682Y-12712674D01*
X12156682Y-12712674D02*
X12175730Y-12703150D01*
X12175730Y-12703150D02*
X12204301Y-12703150D01*
X12204301Y-12703150D02*
X12223349Y-12712674D01*
X12223349Y-12712674D02*
X12232872Y-12731722D01*
X12232872Y-12731722D02*
X12232872Y-12836484D01*
X12356682Y-12836484D02*
X12337634Y-12826960D01*
X12337634Y-12826960D02*
X12328111Y-12817436D01*
X12328111Y-12817436D02*
X12318587Y-12798388D01*
X12318587Y-12798388D02*
X12318587Y-12741246D01*
X12318587Y-12741246D02*
X12328111Y-12722198D01*
X12328111Y-12722198D02*
X12337634Y-12712674D01*
X12337634Y-12712674D02*
X12356682Y-12703150D01*
X12356682Y-12703150D02*
X12385253Y-12703150D01*
X12385253Y-12703150D02*
X12404301Y-12712674D01*
X12404301Y-12712674D02*
X12413825Y-12722198D01*
X12413825Y-12722198D02*
X12423349Y-12741246D01*
X12423349Y-12741246D02*
X12423349Y-12798388D01*
X12423349Y-12798388D02*
X12413825Y-12817436D01*
X12413825Y-12817436D02*
X12404301Y-12826960D01*
X12404301Y-12826960D02*
X12385253Y-12836484D01*
X12385253Y-12836484D02*
X12356682Y-12836484D01*
X12480492Y-12703150D02*
X12556682Y-12703150D01*
X12509063Y-12636484D02*
X12509063Y-12807912D01*
X12509063Y-12807912D02*
X12518587Y-12826960D01*
X12518587Y-12826960D02*
X12537634Y-12836484D01*
X12537634Y-12836484D02*
X12556682Y-12836484D01*
X12775730Y-12703150D02*
X12775730Y-12903150D01*
X12775730Y-12712674D02*
X12794777Y-12703150D01*
X12794777Y-12703150D02*
X12832873Y-12703150D01*
X12832873Y-12703150D02*
X12851920Y-12712674D01*
X12851920Y-12712674D02*
X12861444Y-12722198D01*
X12861444Y-12722198D02*
X12870968Y-12741246D01*
X12870968Y-12741246D02*
X12870968Y-12798388D01*
X12870968Y-12798388D02*
X12861444Y-12817436D01*
X12861444Y-12817436D02*
X12851920Y-12826960D01*
X12851920Y-12826960D02*
X12832873Y-12836484D01*
X12832873Y-12836484D02*
X12794777Y-12836484D01*
X12794777Y-12836484D02*
X12775730Y-12826960D01*
X12985253Y-12836484D02*
X12966206Y-12826960D01*
X12966206Y-12826960D02*
X12956682Y-12807912D01*
X12956682Y-12807912D02*
X12956682Y-12636484D01*
X13147158Y-12836484D02*
X13147158Y-12731722D01*
X13147158Y-12731722D02*
X13137634Y-12712674D01*
X13137634Y-12712674D02*
X13118587Y-12703150D01*
X13118587Y-12703150D02*
X13080492Y-12703150D01*
X13080492Y-12703150D02*
X13061444Y-12712674D01*
X13147158Y-12826960D02*
X13128111Y-12836484D01*
X13128111Y-12836484D02*
X13080492Y-12836484D01*
X13080492Y-12836484D02*
X13061444Y-12826960D01*
X13061444Y-12826960D02*
X13051920Y-12807912D01*
X13051920Y-12807912D02*
X13051920Y-12788865D01*
X13051920Y-12788865D02*
X13061444Y-12769817D01*
X13061444Y-12769817D02*
X13080492Y-12760293D01*
X13080492Y-12760293D02*
X13128111Y-12760293D01*
X13128111Y-12760293D02*
X13147158Y-12750769D01*
X13213825Y-12703150D02*
X13290015Y-12703150D01*
X13242396Y-12636484D02*
X13242396Y-12807912D01*
X13242396Y-12807912D02*
X13251920Y-12826960D01*
X13251920Y-12826960D02*
X13270968Y-12836484D01*
X13270968Y-12836484D02*
X13290015Y-12836484D01*
X13432873Y-12826960D02*
X13413825Y-12836484D01*
X13413825Y-12836484D02*
X13375730Y-12836484D01*
X13375730Y-12836484D02*
X13356682Y-12826960D01*
X13356682Y-12826960D02*
X13347158Y-12807912D01*
X13347158Y-12807912D02*
X13347158Y-12731722D01*
X13347158Y-12731722D02*
X13356682Y-12712674D01*
X13356682Y-12712674D02*
X13375730Y-12703150D01*
X13375730Y-12703150D02*
X13413825Y-12703150D01*
X13413825Y-12703150D02*
X13432873Y-12712674D01*
X13432873Y-12712674D02*
X13442396Y-12731722D01*
X13442396Y-12731722D02*
X13442396Y-12750769D01*
X13442396Y-12750769D02*
X13347158Y-12769817D01*
X13613825Y-12836484D02*
X13613825Y-12636484D01*
X13613825Y-12826960D02*
X13594777Y-12836484D01*
X13594777Y-12836484D02*
X13556682Y-12836484D01*
X13556682Y-12836484D02*
X13537634Y-12826960D01*
X13537634Y-12826960D02*
X13528111Y-12817436D01*
X13528111Y-12817436D02*
X13518587Y-12798388D01*
X13518587Y-12798388D02*
X13518587Y-12741246D01*
X13518587Y-12741246D02*
X13528111Y-12722198D01*
X13528111Y-12722198D02*
X13537634Y-12712674D01*
X13537634Y-12712674D02*
X13556682Y-12703150D01*
X13556682Y-12703150D02*
X13594777Y-12703150D01*
X13594777Y-12703150D02*
X13613825Y-12712674D01*
X13690015Y-12912674D02*
X13699539Y-12903150D01*
X13699539Y-12903150D02*
X13718587Y-12874579D01*
X13718587Y-12874579D02*
X13728111Y-12855531D01*
X13728111Y-12855531D02*
X13737634Y-12826960D01*
X13737634Y-12826960D02*
X13747158Y-12779341D01*
X13747158Y-12779341D02*
X13747158Y-12741246D01*
X13747158Y-12741246D02*
X13737634Y-12693627D01*
X13737634Y-12693627D02*
X13728111Y-12665055D01*
X13728111Y-12665055D02*
X13718587Y-12646008D01*
X13718587Y-12646008D02*
X13699539Y-12617436D01*
X13699539Y-12617436D02*
X13690015Y-12607912D01*
M02*
