M48
; DRILL file {KiCad 8.0.1-8.0.1-1~ubuntu22.04.1} date 2024-06-13T00:54:29-0700
; FORMAT={-:-/ absolute / metric / decimal}
; #@! TF.CreationDate,2024-06-13T00:54:29-07:00
; #@! TF.GenerationSoftware,Kicad,Pcbnew,8.0.1-8.0.1-1~ubuntu22.04.1
; #@! TF.FileFunction,Plated,1,2,PTH
FMAT,2
METRIC
; #@! TA.AperFunction,Plated,PTH,ComponentDrill
T1C0.300
; #@! TA.AperFunction,Plated,PTH,ViaDrill
T2C0.350
; #@! TA.AperFunction,Plated,PTH,ComponentDrill
T3C0.350
; #@! TA.AperFunction,Plated,PTH,ComponentDrill
T4C0.500
; #@! TA.AperFunction,Plated,PTH,ComponentDrill
T5C0.650
; #@! TA.AperFunction,Plated,PTH,ComponentDrill
T6C0.700
; #@! TA.AperFunction,Plated,PTH,ComponentDrill
T7C0.900
; #@! TA.AperFunction,Plated,PTH,ComponentDrill
T8C0.950
; #@! TA.AperFunction,Plated,PTH,ComponentDrill
T9C1.000
; #@! TA.AperFunction,Plated,PTH,ComponentDrill
T10C1.092
; #@! TA.AperFunction,Plated,PTH,ComponentDrill
T11C1.600
; #@! TA.AperFunction,Plated,PTH,ComponentDrill
T12C2.300
; #@! TA.AperFunction,Plated,PTH,ComponentDrill
T13C3.200
%
G90
G05
T1
X93.58Y-69.71
X93.58Y-70.61
X93.58Y-71.51
X94.48Y-69.71
X94.48Y-70.61
X94.48Y-71.51
X95.38Y-69.71
X95.38Y-70.61
X95.38Y-71.51
T2
X70.29Y-106.77
X73.197Y-104.6
X73.26Y-101.07
X73.515Y-112.53
X73.54Y-105.675
X73.565Y-102.375
X73.565Y-103.475
X74.25Y-109.82
X74.358Y-108.987
X74.39Y-107.88
X76.48Y-45.36
X76.48Y-46.46
X77.365Y-111.755
X77.365Y-117.83
X79.79Y-100.2
X80.39Y-114.1
X80.62Y-103.7
X80.67Y-104.58
X80.965Y-105.655
X81.325Y-40.055
X82.2Y-40.055
X82.975Y-45.155
X83.035Y-110.327
X83.615Y-110.805
X83.79Y-108.805
X84.9Y-104.03
X85.009Y-112.57
X85.275Y-39.855
X85.31Y-45.24
X87.23Y-103.24
X87.27Y-73.16
X87.97Y-67.9
X89.14Y-103.89
X89.321Y-79.17
X90.309Y-79.055
X90.4Y-104.23
X90.6Y-61.25
X90.6Y-58.4
X91.28Y-74.06
X91.565Y-110.68
X92.17Y-78.315
X92.49Y-94.9
X92.5Y-101.29
X92.51Y-105.27
X92.71Y-111.03
X92.74Y-109.15
X92.79Y-65.16
X92.79Y-59.33
X92.815Y-113.205
X93.99Y-104.183
X94.0Y-105.605
X94.697Y-95.875
X94.79Y-109.0
X95.24Y-85.02
X95.24Y-100.78
X95.33Y-75.02
X95.42Y-54.97
X95.507Y-77.705
X95.64Y-59.33
X96.76Y-86.93
X97.391Y-106.965
X97.625Y-69.985
X97.64Y-68.835
X97.93Y-76.85
X98.015Y-111.705
X98.324Y-90.573
X98.37Y-85.04
X98.984Y-94.193
X99.33Y-69.9
X99.41Y-80.43
X99.619Y-90.497
X99.92Y-77.96
X100.12Y-73.89
X100.6Y-102.1
X100.606Y-94.936
X100.69Y-97.91
X100.8Y-105.2
X101.397Y-109.052
X101.422Y-107.553
X101.9Y-81.14
X102.17Y-77.96
X102.17Y-82.25
X102.2Y-50.2
X102.2Y-51.15
X102.2Y-60.9
X102.2Y-61.85
X102.921Y-95.463
X103.05Y-109.21
X103.05Y-110.99
X103.065Y-113.23
X103.44Y-106.93
X103.771Y-91.716
X104.75Y-91.678
X105.02Y-77.96
X105.02Y-82.25
X105.05Y-50.2
X105.05Y-51.15
X105.05Y-60.9
X105.05Y-61.85
X105.08Y-101.559
X105.29Y-106.93
X105.545Y-91.18
X106.899Y-100.8
X107.221Y-98.429
X107.38Y-95.873
X108.165Y-101.424
X108.211Y-97.6
X108.49Y-100.167
X110.59Y-81.1
X110.99Y-99.876
X110.99Y-101.9
X110.99Y-105.005
X112.19Y-93.3
X112.513Y-101.582
X116.49Y-98.4
X116.79Y-99.9
X118.59Y-103.1
T3
X86.34Y-109.28
X86.34Y-110.067
X86.34Y-110.855
X87.127Y-109.28
X87.127Y-110.067
X87.127Y-110.855
X98.725Y-98.725
X98.725Y-100.0
X98.725Y-101.275
X100.0Y-98.725
X100.0Y-100.0
X100.0Y-101.275
X101.275Y-98.725
X101.275Y-100.0
X101.275Y-101.275
T4
X77.68Y-46.28
X77.72Y-43.64
T7
X75.491Y-51.231
X75.492Y-61.339
X77.011Y-63.881
X77.012Y-53.769
X86.74Y-53.11
X86.74Y-55.65
X86.74Y-58.19
X86.74Y-60.73
X89.28Y-54.38
X89.28Y-56.92
X89.28Y-59.46
X89.28Y-62.0
T8
X100.35Y-44.47
X102.85Y-44.47
X104.85Y-44.47
X107.35Y-44.47
T9
X80.35Y-117.18
X82.89Y-117.18
X83.35Y-35.0
X85.43Y-117.18
X85.89Y-35.0
X90.51Y-117.105
X93.05Y-117.105
X95.59Y-117.105
X103.21Y-117.18
X105.75Y-117.18
X108.29Y-117.18
X117.29Y-81.62
X117.29Y-84.16
X117.29Y-107.02
X117.29Y-109.56
X117.29Y-112.1
T10
X78.63Y-78.98
X78.63Y-81.27
X78.63Y-83.56
X78.63Y-85.85
X78.63Y-88.14
X81.17Y-80.089
X81.17Y-82.379
X81.17Y-84.669
X81.17Y-86.96
X81.17Y-89.249
X83.71Y-78.98
X83.71Y-81.27
X83.71Y-83.56
X83.71Y-85.85
X83.71Y-88.14
T11
X83.44Y-49.68
X83.44Y-65.43
T12
X97.28Y-41.76
X110.42Y-41.76
T13
X81.17Y-71.315
X81.17Y-96.305
T5
X74.1Y-40.425G85X74.5Y-40.425
G05
X74.1Y-45.275G85X74.5Y-45.275
G05
T6
X71.02Y-40.125G85X71.52Y-40.125
G05
X71.02Y-45.575G85X71.52Y-45.575
G05
M30
